<?xml version="1.0" standalone="no"?>
<!DOCTYPE svg PUBLIC "-//W3C//DTD SVG 20010904//EN"
 "http://www.w3.org/TR/2001/REC-SVG-20010904/DTD/svg10.dtd">
<svg version="1.0" xmlns="http://www.w3.org/2000/svg"
 width="902.000000pt" height="902.000000pt" viewBox="0 0 902.000000 902.000000"
 preserveAspectRatio="xMidYMid meet">
<metadata>
Created by potrace 1.11, written by Peter Selinger 2001-2013
</metadata>
<g transform="translate(0.000000,902.000000) scale(0.100000,-0.100000)"
fill="#000000" stroke="none">
<path d="M3640 6523 c-348 -835 -635 -1524 -637 -1530 -4 -10 158 -13 774 -15
l780 -3 -449 -540 c-247 -297 -456 -547 -464 -555 -19 -18 -23 -28 184 470
l160 385 -872 5 -872 5 443 1064 c244 585 442 1065 441 1067 -2 1 -219 -224
-483 -500 -263 -275 -927 -969 -1474 -1541 l-996 -1040 824 -3 823 -2 -6 -28
c-23 -109 -456 -2657 -454 -2664 2 -6 290 677 640 1516 l636 1526 -780 0
c-429 0 -778 4 -776 8 6 17 912 1101 916 1097 2 -2 -73 -190 -168 -417 -94
-227 -174 -419 -177 -425 -4 -10 173 -13 867 -13 826 0 872 -1 867 -17 -2 -10
-201 -490 -441 -1067 -241 -576 -436 -1050 -434 -1052 3 -3 340 349 2379 2479
l566 592 -819 3 c-645 2 -818 5 -818 15 0 6 104 615 230 1351 127 737 229
1341 227 1343 -2 1 -288 -680 -637 -1514z"/>
<path d="M4630 2074 c-11 -25 -20 -48 -20 -50 0 -3 50 -3 111 -2 l111 3 19 48
19 47 -111 0 -110 0 -19 -46z"/>
<path d="M7257 2093 c-38 -75 -41 -73 81 -73 79 0 111 4 115 13 3 6 12 29 21
50 l16 37 -110 0 c-109 0 -109 0 -123 -27z"/>
<path d="M6197 2061 c-60 -25 -113 -54 -118 -64 -16 -27 -319 -759 -319 -769
0 -4 214 -7 476 -6 l477 3 83 198 c46 109 86 207 89 218 6 18 -4 19 -365 19
l-371 0 6 21 c4 11 45 111 91 221 46 110 84 202 84 204 0 10 -32 -1 -133 -45z
m423 -557 c0 -3 -10 -28 -21 -55 l-21 -49 -270 0 c-212 0 -269 3 -265 13 3 6
13 31 22 55 l17 42 269 0 c148 0 269 -3 269 -6z"/>
<path d="M7981 1988 c-5 -13 -21 -53 -36 -90 l-27 -68 -192 0 -193 0 -32 -82
c-18 -46 -35 -89 -38 -95 -4 -10 40 -13 185 -15 l190 -3 -84 -205 c-46 -113
-84 -206 -84 -207 0 -2 47 -3 104 -3 l103 0 43 103 c23 56 62 150 87 210 l45
107 182 0 182 0 37 88 c20 48 37 90 37 94 0 4 -81 9 -179 10 l-180 3 30 70
c49 116 55 105 -66 105 -100 0 -106 -1 -114 -22z"/>
<path d="M2265 1713 c-49 -119 -91 -220 -93 -224 -2 -5 163 -9 367 -9 218 0
371 -4 371 -9 0 -5 -40 -105 -89 -223 -49 -117 -88 -214 -86 -216 5 -5 229 89
242 101 9 10 333 779 333 793 0 2 -215 4 -477 4 l-478 0 -90 -217z m755 18 c0
-5 -9 -29 -20 -55 l-21 -46 -269 0 -270 0 20 50 c11 28 20 53 20 55 0 3 122 5
270 5 149 0 270 -4 270 -9z"/>
<path d="M3475 1898 c-7 -18 -72 -174 -144 -347 -72 -173 -131 -318 -131 -323
0 -4 203 -7 451 -6 l451 3 149 350 c82 193 149 351 149 353 0 1 -50 1 -111 0
l-111 -3 -106 -262 -106 -263 -243 0 -243 0 9 23 c5 12 55 129 110 261 56 131
101 240 101 242 0 2 -47 4 -106 4 l-105 0 -14 -32z"/>
<path d="M4561 1908 c-5 -13 -70 -169 -145 -347 -75 -178 -136 -328 -136 -333
0 -4 49 -8 108 -8 l108 0 134 323 c73 177 139 337 147 355 l13 32 -110 0
c-105 0 -111 -1 -119 -22z"/>
<path d="M4830 1608 c-73 -178 -139 -338 -147 -356 l-13 -32 455 2 456 3 35
79 c19 44 34 83 34 88 0 4 -153 8 -340 8 -243 0 -340 3 -340 11 0 6 30 83 67
170 l67 159 347 0 c268 0 348 3 352 13 3 6 21 49 41 95 l35 82 -458 0 -458 0
-133 -322z"/>
<path d="M7038 1570 l-146 -350 112 0 111 0 143 343 c78 189 142 346 142 350
0 4 -48 7 -108 7 l-107 0 -147 -350z"/>
</g>
</svg>
